# xmcd
#
# Track frame offsets: 
#        150
#        13033
#        34917
#        42792
#        56480
#        69005
#        85037
#        98762
#        110686
#        123024
#        140274
#        156324
#
# Disc length: 2320 seconds
#
# Revision: 4
# Processed by: cddbd v1.5.2PL0 Copyright (c) Steve Scherf et al.
# Submitted via: ExactAudioCopyFreeDBPlugin 1.0
#
DISCID=8f090e0c
DTITLE=Tennessee Gospel Society - O Happy Day - Gospel Highlights  [CD
DTITLE=1)
DYEAR=2003
DGENRE=Gospel
TTITLE0=Go tell it on the mountain
TTITLE1=O happy day
TTITLE2=Plenty good room
TTITLE3=Swing low, sweet chariot
TTITLE4=Amen
TTITLE5=He's got the whole world in his hand
TTITLE6=Standing in the need of prayer
TTITLE7=Good news
TTITLE8=Deep river
TTITLE9=Steal away
TTITLE10=Were you there
TTITLE11=In the upper room
EXTD=\n YEAR: 2003 ID3G: 38
EXTT0=
EXTT1=
EXTT2=
EXTT3=
EXTT4=
EXTT5=
EXTT6=
EXTT7=
EXTT8=
EXTT9=
EXTT10=
EXTT11=
PLAYORDER=
